{
	"asset":{
		"generator":"Khronos glTF Blender I/O v4.5.48",
		"version":"2.0"
	},
	"extensionsUsed":[
		"KHR_materials_specular"
	],
	"scene":0,
	"scenes":[
		{
			"name":"Scene",
			"nodes":[
				0
			]
		}
	],
	"nodes":[
		{
			"mesh":0,
			"name":"Cube.008",
			"scale":[
				-43.66122817993164,
				-0.8931010365486145,
				-51.278411865234375
			],
			"translation":[
				-50.22042465209961,
				18.174114227294922,
				-7.855166435241699
			]
		}
	],
	"materials":[
		{
			"doubleSided":true,
			"name":"Poliigon_StoneQuartzite_8060_2K",
			"normalTexture":{
				"index":0
			},
			"pbrMetallicRoughness":{
				"baseColorTexture":{
					"index":1
				},
				"metallicRoughnessTexture":{
					"index":2
				}
			}
		},
		{
			"doubleSided":true,
			"name":"Poliigon_WoodVeneerOak_7760_2K",
			"normalTexture":{
				"index":3
			},
			"pbrMetallicRoughness":{
				"baseColorTexture":{
					"index":4
				},
				"metallicRoughnessTexture":{
					"index":5
				}
			}
		},
		{
			"doubleSided":true,
			"name":"Material.001",
			"pbrMetallicRoughness":{
				"metallicFactor":0,
				"roughnessFactor":0.5
			}
		},
		{
			"doubleSided":true,
			"extensions":{
				"KHR_materials_specular":{
					"specularFactor":0
				}
			},
			"name":"wire_087224198",
			"pbrMetallicRoughness":{
				"baseColorTexture":{
					"index":6
				},
				"metallicFactor":0
			}
		}
	],
	"meshes":[
		{
			"name":"Cube.021",
			"primitives":[
				{
					"attributes":{
						"POSITION":0,
						"NORMAL":1,
						"TEXCOORD_0":2
					},
					"indices":3,
					"material":0
				},
				{
					"attributes":{
						"POSITION":4,
						"NORMAL":5,
						"TEXCOORD_0":6
					},
					"indices":7,
					"material":1
				},
				{
					"attributes":{
						"POSITION":8,
						"NORMAL":9,
						"TEXCOORD_0":10
					},
					"indices":11,
					"material":2
				},
				{
					"attributes":{
						"POSITION":12,
						"NORMAL":13,
						"TEXCOORD_0":14
					},
					"indices":15,
					"material":3
				}
			]
		}
	],
	"textures":[
		{
			"sampler":0,
			"source":0
		},
		{
			"sampler":0,
			"source":1
		},
		{
			"sampler":0,
			"source":2
		},
		{
			"sampler":0,
			"source":3
		},
		{
			"sampler":0,
			"source":4
		},
		{
			"sampler":0,
			"source":5
		},
		{
			"sampler":0,
			"source":6
		}
	],
	"images":[
		{
			"mimeType":"image/jpeg",
			"name":"Poliigon_StoneQuartzite_8060_Normal",
			"uri":"Poliigon_StoneQuartzite_8060_Normal.jpg"
		},
		{
			"mimeType":"image/jpeg",
			"name":"Poliigon_StoneQuartzite_8060_BaseColor",
			"uri":"Poliigon_StoneQuartzite_8060_BaseColor.jpg"
		},
		{
			"mimeType":"image/png",
			"name":"Poliigon_StoneQuartzite_8060_Metallic_2K_jpg-Poliigon_StoneQuartzite_8060_Roughness_2K_jpg",
			"uri":"Poliigon_StoneQuartzite_8060_Metallic_2K_jpg-Poliigon_StoneQuartzite_8060_Roughness_2K_jpg.png"
		},
		{
			"mimeType":"image/jpeg",
			"name":"Poliigon_WoodVeneerOak_7760_Normal",
			"uri":"Poliigon_WoodVeneerOak_7760_Normal.jpg"
		},
		{
			"mimeType":"image/jpeg",
			"name":"Poliigon_WoodVeneerOak_7760_BaseColor",
			"uri":"Poliigon_WoodVeneerOak_7760_BaseColor.jpg"
		},
		{
			"mimeType":"image/png",
			"name":"Poliigon_WoodVeneerOak_7760_Metallic_2K_jpg-Poliigon_WoodVeneerOak_7760_Roughness_2K_jpg",
			"uri":"Poliigon_WoodVeneerOak_7760_Metallic_2K_jpg-Poliigon_WoodVeneerOak_7760_Roughness_2K_jpg.png"
		},
		{
			"mimeType":"image/jpeg",
			"name":"grass",
			"uri":"grass.jpg"
		}
	],
	"accessors":[
		{
			"bufferView":0,
			"componentType":5126,
			"count":3355,
			"max":[
				1,
				28.28319549560547,
				1
			],
			"min":[
				-1.7892932891845703,
				-3.045466184616089,
				-1
			],
			"type":"VEC3"
		},
		{
			"bufferView":1,
			"componentType":5126,
			"count":3355,
			"type":"VEC3"
		},
		{
			"bufferView":2,
			"componentType":5126,
			"count":3355,
			"type":"VEC2"
		},
		{
			"bufferView":3,
			"componentType":5123,
			"count":5964,
			"type":"SCALAR"
		},
		{
			"bufferView":4,
			"componentType":5126,
			"count":1086,
			"max":[
				1.0646754503250122,
				28.93363380432129,
				1.04317045211792
			],
			"min":[
				-1.708970546722412,
				-5.567458152770996,
				-1.079911470413208
			],
			"type":"VEC3"
		},
		{
			"bufferView":5,
			"componentType":5126,
			"count":1086,
			"type":"VEC3"
		},
		{
			"bufferView":6,
			"componentType":5126,
			"count":1086,
			"type":"VEC2"
		},
		{
			"bufferView":7,
			"componentType":5123,
			"count":2424,
			"type":"SCALAR"
		},
		{
			"bufferView":8,
			"componentType":5126,
			"count":40,
			"max":[
				-1.1951285600662231,
				27.30419921875,
				0.979845404624939
			],
			"min":[
				-1.667544960975647,
				26.875259399414062,
				0.29122355580329895
			],
			"type":"VEC3"
		},
		{
			"bufferView":9,
			"componentType":5126,
			"count":40,
			"type":"VEC3"
		},
		{
			"bufferView":10,
			"componentType":5126,
			"count":40,
			"type":"VEC2"
		},
		{
			"bufferView":11,
			"componentType":5123,
			"count":84,
			"type":"SCALAR"
		},
		{
			"bufferView":12,
			"componentType":5126,
			"count":12285,
			"max":[
				-1.1825155019760132,
				27.871143341064453,
				1.0143234729766846
			],
			"min":[
				-1.7115646600723267,
				25.783443450927734,
				-1.0279784202575684
			],
			"type":"VEC3"
		},
		{
			"bufferView":13,
			"componentType":5126,
			"count":12285,
			"type":"VEC3"
		},
		{
			"bufferView":14,
			"componentType":5126,
			"count":12285,
			"type":"VEC2"
		},
		{
			"bufferView":15,
			"componentType":5123,
			"count":71424,
			"type":"SCALAR"
		}
	],
	"bufferViews":[
		{
			"buffer":0,
			"byteLength":40260,
			"byteOffset":0,
			"target":34962
		},
		{
			"buffer":0,
			"byteLength":40260,
			"byteOffset":40260,
			"target":34962
		},
		{
			"buffer":0,
			"byteLength":26840,
			"byteOffset":80520,
			"target":34962
		},
		{
			"buffer":0,
			"byteLength":11928,
			"byteOffset":107360,
			"target":34963
		},
		{
			"buffer":0,
			"byteLength":13032,
			"byteOffset":119288,
			"target":34962
		},
		{
			"buffer":0,
			"byteLength":13032,
			"byteOffset":132320,
			"target":34962
		},
		{
			"buffer":0,
			"byteLength":8688,
			"byteOffset":145352,
			"target":34962
		},
		{
			"buffer":0,
			"byteLength":4848,
			"byteOffset":154040,
			"target":34963
		},
		{
			"buffer":0,
			"byteLength":480,
			"byteOffset":158888,
			"target":34962
		},
		{
			"buffer":0,
			"byteLength":480,
			"byteOffset":159368,
			"target":34962
		},
		{
			"buffer":0,
			"byteLength":320,
			"byteOffset":159848,
			"target":34962
		},
		{
			"buffer":0,
			"byteLength":168,
			"byteOffset":160168,
			"target":34963
		},
		{
			"buffer":0,
			"byteLength":147420,
			"byteOffset":160336,
			"target":34962
		},
		{
			"buffer":0,
			"byteLength":147420,
			"byteOffset":307756,
			"target":34962
		},
		{
			"buffer":0,
			"byteLength":98280,
			"byteOffset":455176,
			"target":34962
		},
		{
			"buffer":0,
			"byteLength":142848,
			"byteOffset":553456,
			"target":34963
		}
	],
	"samplers":[
		{
			"magFilter":9729,
			"minFilter":9987
		}
	],
	"buffers":[
		{
			"byteLength":696304,
			"uri":"museo.bin"
		}
	]
}
