# Blender 4.5.4 LTS
# www.blender.org
mtllib hombro2.mtl
o Cube.008
v -0.172499 -0.082865 -0.117410
v -0.172499 -0.082865 -0.117410
v -0.120433 -0.107417 0.142079
v -0.120433 -0.107417 0.142079
v 0.043320 -0.224461 0.108947
v 0.043320 -0.224461 0.108947
v 0.000198 -0.192827 -0.115786
v 0.000198 -0.192827 -0.115786
v -0.257922 -0.310585 -0.068214
v -0.257922 -0.310585 -0.068214
v -0.257922 -0.310585 -0.068214
v -0.257922 -0.310585 -0.068214
v -0.218745 -0.324567 0.113575
v -0.218745 -0.324567 0.113575
v -0.218745 -0.324567 0.113575
v -0.218745 -0.324567 0.113575
v -0.114269 -0.412282 0.086754
v -0.114269 -0.412282 0.086754
v -0.114269 -0.412282 0.086754
v -0.114269 -0.412282 0.086754
v -0.144992 -0.399621 -0.076285
v -0.144992 -0.399621 -0.076285
v -0.144992 -0.399621 -0.076285
v -0.144992 -0.399621 -0.076285
v -0.285782 -0.399121 -0.061629
v -0.285782 -0.399121 -0.061629
v -0.250496 -0.402913 0.122002
v -0.250496 -0.402913 0.122002
v -0.146155 -0.466840 0.098440
v -0.146155 -0.466840 0.098440
v -0.174034 -0.462833 -0.068953
v -0.174034 -0.462833 -0.068953
v -0.150141 -0.074357 0.009016
v -0.172499 -0.082865 -0.117410
v -0.172499 -0.082865 -0.117410
v -0.120433 -0.107417 0.142079
v -0.120433 -0.107417 0.142079
v 0.043320 -0.224461 0.108947
v 0.043320 -0.224461 0.108947
v 0.000198 -0.192827 -0.115786
v 0.000198 -0.192827 -0.115786
v -0.150141 -0.074357 0.009016
v -0.150141 -0.074357 0.009016
v 0.049772 0.078330 0.236724
v 0.049772 0.078330 0.236724
v 0.019670 0.176666 0.029400
v 0.019670 0.176666 0.029400
v 0.132686 -0.113656 0.201269
v 0.132686 -0.113656 0.201269
v -0.021903 0.110244 -0.156924
v -0.021903 0.110244 -0.156924
v 0.058943 -0.031585 -0.232713
v 0.058943 -0.031585 -0.232713
v -0.158336 -0.068247 0.010862
v -0.158336 -0.068247 0.010862
v -0.158336 -0.068247 0.010862
v -0.158336 -0.068247 0.010862
v -0.127021 -0.105389 0.149852
v -0.127021 -0.105389 0.149852
v -0.127021 -0.105389 0.149852
v -0.127021 -0.105389 0.149852
v 0.048968 -0.232229 0.113274
v 0.048968 -0.232229 0.113274
v 0.048968 -0.232229 0.113274
v 0.048968 -0.232229 0.113274
v 0.004619 -0.198579 -0.123397
v 0.004619 -0.198579 -0.123397
v 0.004619 -0.198579 -0.123397
v 0.004619 -0.198579 -0.123397
v -0.180436 -0.079345 -0.123113
v -0.180436 -0.079345 -0.123113
v -0.180436 -0.079345 -0.123113
v -0.180436 -0.079345 -0.123113
vn -0.1183 -0.1379 -0.9834
vn 0.8622 -0.4746 -0.1769
vn 0.0846 -0.1763 0.9807
vn 0.7702 -0.6004 -0.2153
vn -0.9076 0.3584 0.2186
vn -0.9161 0.3455 0.2035
vn -0.1036 -0.0522 -0.9932
vn 0.2521 0.0257 0.9674
vn -0.5334 -0.8318 0.1537
vn -0.5333 -0.8319 0.1537
vn -0.5197 -0.8096 0.2729
vn -0.5197 -0.8096 0.2730
vn -0.7928 -0.6061 0.0645
vn -0.5892 -0.7113 -0.3832
vn -0.5285 -0.8431 -0.0990
vn -0.5286 -0.8431 -0.0990
vn -0.1921 -0.3621 0.9121
vn -0.1923 -0.3621 0.9121
vn -0.7904 0.6125 0.0089
vn -0.3907 -0.1324 -0.9110
vn -0.3907 -0.1322 -0.9110
vn 0.8697 -0.4375 -0.2286
vn 0.8697 -0.4374 -0.2286
vn -0.7623 0.5453 0.3485
vt 0.475286 0.500000
vt 0.375000 0.500000
vt 0.428189 0.500000
vt 0.422093 0.500000
s 1
usemtl skin.006
f 8/1/1 24/1/1 10/1/1
f 8/1/1 10/1/1 1/1/1
f 20/2/2 30/2/2 31/1/2
f 20/2/2 31/1/2 22/1/2
f 3/2/3 13/2/3 17/2/3
f 3/2/3 17/2/3 5/2/3
f 6/2/4 19/2/4 21/1/4
f 6/2/4 21/1/4 7/1/4
f 33/3/5 2/1/5 11/1/5
f 11/1/5 15/2/5 4/2/5
f 11/1/5 4/2/5 33/3/5
f 12/1/6 26/1/6 28/2/6
f 12/1/6 28/2/6 16/2/6
f 23/1/7 32/1/7 25/1/7
f 23/1/7 25/1/7 9/1/7
f 14/2/8 27/2/8 29/2/8
f 14/2/8 29/2/8 18/2/8
usemtl Material.005
f 43/3/9 55/3/9 72/1/10
f 43/3/9 72/1/10 35/1/10
f 34/1/11 71/1/12 68/1/12
f 34/1/11 68/1/12 40/1/12
f 41/1/13 69/1/13 65/2/13
f 41/1/13 65/2/13 39/2/13
f 38/2/14 64/2/14 60/2/14
f 38/2/14 60/2/14 37/2/14
f 36/2/15 59/2/15 54/3/15
f 36/2/15 54/3/15 42/3/16
f 44/2/17 58/2/17 63/2/17
f 44/2/17 63/2/17 49/2/18
f 51/1/19 73/1/19 57/3/19
f 51/1/19 57/3/19 47/4/19
f 53/1/20 67/1/20 70/1/20
f 53/1/20 70/1/20 50/1/21
f 48/2/22 62/2/22 66/1/23
f 48/2/22 66/1/23 52/1/22
f 56/3/24 61/2/24 45/2/24
f 56/3/24 45/2/24 46/4/24
