# Blender 4.5.4 LTS
# www.blender.org
mtllib pie1.mtl
o Cube.011
v 0.153212 0.093243 -0.093852
v 0.151622 0.119959 0.199501
v 0.143455 -0.087441 -0.091305
v 0.142596 -0.072425 0.158646
v -0.081154 -0.721513 -0.116011
v -0.081154 -0.721513 -0.116011
v -0.077381 -0.713441 0.081005
v -0.077381 -0.713441 0.081005
v 0.103191 -0.727682 -0.113543
v 0.103191 -0.727682 -0.113543
v 0.117829 -0.717310 0.081574
v 0.117829 -0.717310 0.081574
v -0.089142 -0.721342 -0.124548
v -0.089142 -0.721342 -0.124548
v -0.085673 -0.714469 0.089185
v -0.085673 -0.714469 0.089185
v 0.111065 -0.727577 -0.122187
v 0.111065 -0.727577 -0.122187
v 0.126578 -0.718451 0.089247
v 0.126578 -0.718451 0.089247
v -0.108910 0.103120 -0.097469
v -0.108910 0.103120 -0.097469
v -0.079222 0.125714 0.197753
v -0.079222 0.125714 0.197753
v 0.153212 0.093244 -0.093852
v 0.151622 0.119959 0.199501
v -0.116480 -0.074897 -0.094255
v -0.116480 -0.074897 -0.094255
v -0.116480 -0.074897 -0.094255
v -0.116480 -0.074897 -0.094255
v -0.090736 -0.063404 0.157005
v -0.090736 -0.063404 0.157005
v -0.090736 -0.063404 0.157005
v -0.090736 -0.063404 0.157005
v 0.143455 -0.087440 -0.091305
v 0.143455 -0.087440 -0.091305
v 0.143455 -0.087440 -0.091305
v 0.142596 -0.072425 0.158646
v 0.142596 -0.072425 0.158646
v 0.142596 -0.072425 0.158646
v -0.089142 -0.721342 -0.124548
v -0.089142 -0.721342 -0.124548
v -0.085673 -0.714469 0.089185
v -0.085673 -0.714469 0.089185
v 0.111065 -0.727577 -0.122187
v 0.111065 -0.727577 -0.122187
v 0.126578 -0.718451 0.089247
v 0.126578 -0.718451 0.089247
v -0.081154 -0.721513 -0.116011
v -0.081154 -0.721513 -0.116011
v -0.077381 -0.713441 0.081005
v -0.077381 -0.713441 0.081005
v -0.077381 -0.713441 0.081005
v 0.103191 -0.727682 -0.113543
v 0.103191 -0.727682 -0.113543
v 0.117829 -0.717310 0.081574
v 0.117829 -0.717310 0.081574
v 0.117829 -0.717310 0.081574
v -0.083703 -0.819403 -0.122899
v -0.083703 -0.819403 -0.122899
v -0.083703 -0.819403 -0.122899
v -0.077166 -0.822318 0.064354
v -0.077166 -0.822318 0.064354
v -0.077166 -0.822318 0.064354
v -0.077166 -0.822318 0.064354
v 0.100642 -0.825572 -0.120431
v 0.100642 -0.825572 -0.120431
v 0.100642 -0.825572 -0.120431
v 0.111721 -0.826073 0.065268
v 0.111721 -0.826073 0.065268
v 0.111721 -0.826073 0.065268
v 0.111721 -0.826073 0.065268
v -0.075419 -0.725151 0.175780
v -0.075419 -0.725151 0.175780
v -0.075419 -0.725151 0.175780
v -0.075419 -0.725151 0.175780
v 0.114075 -0.729188 0.177341
v 0.114075 -0.729188 0.177341
v 0.114075 -0.729188 0.177341
v 0.114075 -0.729188 0.177341
v -0.078384 -0.825335 0.164077
v -0.078384 -0.825335 0.164077
v -0.078384 -0.825335 0.164077
v -0.078384 -0.825335 0.164077
v 0.110856 -0.829361 0.165617
v 0.110856 -0.829361 0.165617
v 0.110856 -0.829361 0.165617
v 0.110856 -0.829361 0.165617
v -0.046615 -0.768989 0.339941
v -0.046615 -0.768989 0.339941
v -0.046615 -0.768989 0.339941
v 0.081075 -0.771658 0.341009
v 0.081075 -0.771658 0.341009
v 0.081075 -0.771658 0.341009
v -0.048584 -0.828815 0.334618
v -0.048584 -0.828815 0.334618
v -0.048584 -0.828815 0.334618
v 0.079105 -0.831484 0.335686
v 0.079105 -0.831484 0.335686
v 0.079105 -0.831484 0.335686
vn -0.0189 -0.9907 -0.1350
vn -0.0320 -0.9994 -0.0158
vn 0.0518 -0.9980 0.0354
vn 0.0519 -0.9980 0.0354
vn -0.0591 -0.9969 0.0522
vn -0.0592 -0.9969 0.0522
vn 0.9987 -0.0511 0.0084
vn 0.9986 -0.0512 0.0085
vn 0.0136 0.0474 -0.9988
vn 0.0133 0.0475 -0.9988
vn 0.0118 -0.0164 -0.9998
vn 0.0119 -0.0166 -0.9998
vn 0.0119 -0.0167 -0.9998
vn -0.0139 -0.2086 0.9779
vn -0.0138 -0.2084 0.9779
vn -0.0136 -0.2083 0.9780
vn -0.0138 -0.2084 0.9780
vn -0.9943 0.0415 0.0983
vn -0.9943 0.0416 0.0983
vn -0.0070 -0.1051 0.9944
vn -0.0069 -0.1051 0.9944
vn -0.9975 -0.0297 0.0638
vn 0.9989 -0.0353 -0.0299
vn 0.0196 0.9922 0.1231
vn 0.0198 0.9922 0.1229
vn 0.0195 0.9922 0.1233
vn 0.0197 0.9922 0.1230
vn -0.0265 -0.9996 -0.0079
vn -0.9996 0.0082 0.0267
vn 0.9972 -0.0343 -0.0665
vn 0.0157 0.0698 -0.9974
vn 0.9817 -0.0516 0.1835
vn 0.9817 -0.0514 0.1836
vn -0.9999 0.0125 0.0048
vn -0.9999 0.0126 0.0047
vn 0.9987 -0.0472 0.0199
vn 0.9987 -0.0473 0.0198
vn -0.0206 -0.9993 -0.0322
vn -0.0204 -0.9993 -0.0317
vn -0.0204 -0.9993 -0.0316
vn -0.0102 -0.0883 0.9960
vn 0.0183 0.9668 0.2548
vn 0.0181 0.9668 0.2550
vn -0.9847 0.0118 0.1741
vn -0.0210 -0.9996 -0.0166
vn -0.0208 -0.9997 -0.0164
vn -0.0210 -0.9996 -0.0165
vn -0.0211 -0.9996 -0.0167
vt 0.260193 0.500000
vt 0.375000 0.500000
vt 0.475286 0.500000
vt 0.475286 0.383876
vt 0.375000 0.385193
s 1
usemtl pants.003
f 11/1/1 19/1/1 16/2/1
f 11/1/1 16/2/1 8/2/1
f 6/3/2 14/3/2 17/4/2
f 6/3/2 17/4/2 9/4/2
f 7/2/3 15/2/4 13/3/3
f 7/2/3 13/3/3 5/3/3
f 10/4/5 18/4/5 20/5/6
f 10/4/5 20/5/6 12/5/5
f 2/5/7 4/5/7 3/4/8
f 2/5/7 3/4/8 1/4/7
f 36/4/9 45/4/10 41/3/10
f 36/4/9 41/3/10 28/3/9
f 25/4/11 35/4/12 27/3/13
f 25/4/11 27/3/13 21/3/13
f 23/2/14 32/2/15 40/1/16
f 23/2/14 40/1/16 26/1/17
f 22/3/18 29/3/19 33/2/19
f 22/3/18 33/2/19 24/2/19
f 31/2/20 43/2/21 48/1/21
f 31/2/20 48/1/21 39/1/21
f 30/3/22 42/3/22 44/2/22
f 30/3/22 44/2/22 34/2/22
f 38/5/23 47/5/23 46/4/23
f 38/5/23 46/4/23 37/4/23
usemtl shoes.001
f 51/2/24 74/2/25 78/1/26
f 51/2/24 78/1/26 56/1/27
f 72/5/28 63/2/28 60/3/28
f 72/5/28 60/3/28 68/4/28
f 50/3/29 61/3/29 64/2/29
f 50/3/29 64/2/29 52/2/29
f 57/5/30 69/5/30 67/4/30
f 57/5/30 67/4/30 55/4/30
f 54/4/31 66/4/31 59/3/31
f 54/4/31 59/3/31 49/3/31
f 79/5/32 93/5/33 98/5/33
f 79/5/32 98/5/33 85/5/33
f 65/2/34 84/2/34 76/2/35
f 65/2/34 76/2/35 53/2/34
f 58/5/36 80/5/36 86/5/37
f 58/5/36 86/5/37 70/5/36
f 71/5/38 87/5/39 81/2/39
f 71/5/38 81/2/39 62/2/40
f 90/2/41 95/2/41 99/1/41
f 90/2/41 99/1/41 94/1/41
f 73/2/42 89/2/43 92/1/43
f 73/2/42 92/1/43 77/1/42
f 83/2/44 97/2/44 91/2/44
f 83/2/44 91/2/44 75/2/44
f 88/5/45 100/5/46 96/2/47
f 88/5/45 96/2/47 82/2/48
