# Blender 4.5.4 LTS
# www.blender.org
mtllib pie2.mtl
o Cube.002
v 0.115063 -0.714699 -0.116011
v 0.115063 -0.714699 -0.116011
v 0.111290 -0.706627 0.081005
v 0.111290 -0.706627 0.081005
v -0.069282 -0.720868 -0.113543
v -0.069282 -0.720868 -0.113543
v -0.083919 -0.710497 0.081574
v -0.083919 -0.710497 0.081574
v 0.123052 -0.714529 -0.124548
v 0.123052 -0.714529 -0.124548
v 0.119582 -0.707656 0.089185
v 0.119582 -0.707656 0.089185
v -0.077155 -0.720764 -0.122187
v -0.077155 -0.720764 -0.122187
v -0.092669 -0.711637 0.089247
v -0.092669 -0.711637 0.089247
v 0.142820 0.109934 -0.097469
v 0.142820 0.109934 -0.097469
v 0.113132 0.132527 0.197753
v 0.113132 0.132527 0.197753
v -0.119303 0.100057 -0.093852
v -0.119303 0.100057 -0.093852
v -0.117713 0.126773 0.199501
v -0.117713 0.126773 0.199501
v 0.150389 -0.068084 -0.094255
v 0.150389 -0.068084 -0.094255
v 0.150389 -0.068084 -0.094255
v 0.150389 -0.068084 -0.094255
v 0.124645 -0.056591 0.157005
v 0.124645 -0.056591 0.157005
v 0.124645 -0.056591 0.157005
v 0.124645 -0.056591 0.157005
v -0.109546 -0.080627 -0.091305
v -0.109546 -0.080627 -0.091305
v -0.109546 -0.080627 -0.091305
v -0.109546 -0.080627 -0.091305
v -0.108686 -0.065611 0.158646
v -0.108686 -0.065611 0.158646
v -0.108686 -0.065611 0.158646
v -0.108686 -0.065611 0.158646
v 0.123052 -0.714529 -0.124548
v 0.123052 -0.714529 -0.124548
v 0.119582 -0.707656 0.089185
v 0.119582 -0.707656 0.089185
v -0.077155 -0.720764 -0.122187
v -0.077155 -0.720764 -0.122187
v -0.092669 -0.711637 0.089247
v -0.092669 -0.711637 0.089247
v 0.115063 -0.714699 -0.116011
v 0.115063 -0.714699 -0.116011
v 0.111290 -0.706627 0.081005
v 0.111290 -0.706627 0.081005
v 0.111290 -0.706627 0.081005
v -0.069282 -0.720868 -0.113543
v -0.069282 -0.720868 -0.113543
v -0.083919 -0.710497 0.081574
v -0.083919 -0.710497 0.081574
v -0.083919 -0.710497 0.081574
v 0.117612 -0.812589 -0.122899
v 0.117612 -0.812589 -0.122899
v 0.117612 -0.812589 -0.122899
v 0.111075 -0.815505 0.064354
v 0.111075 -0.815505 0.064354
v 0.111075 -0.815505 0.064354
v 0.111075 -0.815505 0.064354
v -0.066733 -0.818758 -0.120431
v -0.066733 -0.818758 -0.120431
v -0.066733 -0.818758 -0.120431
v -0.077812 -0.819259 0.065268
v -0.077812 -0.819259 0.065268
v -0.077812 -0.819259 0.065268
v -0.077812 -0.819259 0.065268
v 0.109329 -0.718337 0.175780
v 0.109329 -0.718337 0.175780
v 0.109329 -0.718337 0.175780
v 0.109329 -0.718337 0.175780
v -0.080166 -0.722375 0.177341
v -0.080166 -0.722375 0.177341
v -0.080166 -0.722375 0.177341
v -0.080166 -0.722375 0.177341
v 0.112293 -0.818522 0.164077
v 0.112293 -0.818522 0.164077
v 0.112293 -0.818522 0.164077
v 0.112293 -0.818522 0.164077
v -0.076947 -0.822547 0.165617
v -0.076947 -0.822547 0.165617
v -0.076947 -0.822547 0.165617
v -0.076947 -0.822547 0.165617
v 0.080524 -0.762176 0.339941
v 0.080524 -0.762176 0.339941
v 0.080524 -0.762176 0.339941
v -0.047166 -0.764845 0.341009
v -0.047166 -0.764845 0.341009
v -0.047166 -0.764845 0.341009
v 0.082494 -0.822001 0.334618
v 0.082494 -0.822001 0.334618
v 0.082494 -0.822001 0.334618
v -0.045196 -0.824670 0.335686
v -0.045196 -0.824670 0.335686
v -0.045196 -0.824670 0.335686
vn 0.0189 -0.9907 -0.1350
vn 0.0320 -0.9994 -0.0158
vn -0.0518 -0.9980 0.0354
vn -0.0517 -0.9980 0.0354
vn -0.0519 -0.9980 0.0354
vn 0.0591 -0.9969 0.0522
vn 0.0592 -0.9969 0.0522
vn -0.9987 -0.0511 0.0084
vn -0.9987 -0.0512 0.0085
vn -0.0136 0.0474 -0.9988
vn -0.0133 0.0475 -0.9988
vn -0.0116 -0.0162 -0.9998
vn -0.0119 -0.0167 -0.9998
vn -0.0120 -0.0168 -0.9998
vn -0.0119 -0.0166 -0.9998
vn 0.0139 -0.2086 0.9779
vn 0.0138 -0.2084 0.9779
vn 0.0136 -0.2083 0.9780
vn 0.0139 -0.2085 0.9779
vn 0.9943 0.0416 0.0984
vn 0.9943 0.0416 0.0983
vn 0.9943 0.0415 0.0982
vn 0.0070 -0.1051 0.9944
vn 0.0069 -0.1051 0.9944
vn 0.9975 -0.0297 0.0638
vn -0.9989 -0.0353 -0.0299
vn -0.0196 0.9922 0.1232
vn -0.0197 0.9922 0.1230
vn -0.0195 0.9922 0.1233
vn -0.0198 0.9922 0.1229
vn 0.0265 -0.9996 -0.0079
vn 0.9996 0.0082 0.0267
vn -0.9972 -0.0343 -0.0665
vn -0.0157 0.0698 -0.9974
vn -0.9817 -0.0516 0.1835
vn -0.9817 -0.0514 0.1836
vn 0.9999 0.0125 0.0048
vn -0.9987 -0.0472 0.0199
vn 0.0206 -0.9993 -0.0322
vn 0.0204 -0.9993 -0.0317
vn 0.0204 -0.9993 -0.0316
vn 0.0102 -0.0883 0.9960
vn -0.0181 0.9668 0.2550
vn -0.0185 0.9669 0.2546
vn -0.0183 0.9668 0.2548
vn 0.9847 0.0118 0.1741
vn 0.0210 -0.9996 -0.0166
vn 0.0211 -0.9996 -0.0167
vn 0.0210 -0.9996 -0.0165
vn 0.0208 -0.9997 -0.0164
vt 0.260193 0.500000
vt 0.375000 0.500000
vt 0.475286 0.500000
vt 0.475286 0.383876
vt 0.375000 0.385193
s 1
usemtl pants.002
f 7/1/1 3/2/1 11/2/1
f 7/1/1 11/2/1 15/1/1
f 1/3/2 5/4/2 13/4/2
f 1/3/2 13/4/2 9/3/2
f 4/2/3 2/3/4 10/3/4
f 4/2/3 10/3/4 12/2/5
f 6/4/6 8/5/6 16/5/7
f 6/4/6 16/5/7 14/4/6
f 24/5/8 22/4/8 35/4/9
f 24/5/8 35/4/9 39/5/8
f 34/4/10 28/3/10 42/3/11
f 34/4/10 42/3/11 45/4/11
f 21/4/12 18/3/13 27/3/14
f 21/4/12 27/3/14 33/4/15
f 19/2/16 23/1/17 38/1/18
f 19/2/16 38/1/18 30/2/19
f 17/3/20 20/2/21 31/2/22
f 17/3/20 31/2/22 25/3/21
f 29/2/23 37/1/24 47/1/24
f 29/2/23 47/1/24 43/2/24
f 26/3/25 32/2/25 44/2/25
f 26/3/25 44/2/25 41/3/25
f 40/5/26 36/4/26 46/4/26
f 40/5/26 46/4/26 48/5/26
usemtl shoes
f 53/2/27 56/1/28 78/1/29
f 53/2/27 78/1/29 76/2/30
f 70/5/31 66/4/31 59/3/31
f 70/5/31 59/3/31 63/2/31
f 49/3/32 51/2/32 64/2/32
f 49/3/32 64/2/32 60/3/32
f 57/5/33 55/4/33 68/4/33
f 57/5/33 68/4/33 71/5/33
f 54/4/34 50/3/34 61/3/34
f 54/4/34 61/3/34 67/4/34
f 79/5/35 87/5/36 100/5/36
f 79/5/35 100/5/36 94/5/36
f 65/2/37 52/2/37 74/2/37
f 65/2/37 74/2/37 84/2/37
f 58/5/38 72/5/38 88/5/38
f 58/5/38 88/5/38 80/5/38
f 69/5/39 62/2/40 81/2/41
f 69/5/39 81/2/41 85/5/40
f 89/2/42 92/1/42 98/1/42
f 89/2/42 98/1/42 95/2/42
f 75/2/43 77/1/44 93/1/45
f 75/2/43 93/1/45 91/2/43
f 83/2/46 73/2/46 90/2/46
f 83/2/46 90/2/46 97/2/46
f 86/5/47 82/2/48 96/2/49
f 86/5/47 96/2/49 99/5/50
